# xmcd
#
# Track frame offsets:
#	150
#	24418
#	43139
#	55325
#	78184
#	95703
#	116576
#	138121
#	156153
#	176034
#	202010
#	219409
#
# Disc length: 3230 seconds
#
# Revision: 4
# Processed by: cddbd v1.5.1PL2 Copyright (c) Steve Scherf et al.
# Submitted via: EasyCDDAExtractor 9.1.3.1
#
DISCID=a40c9c0c
DTITLE=Crossroadz - Salado
DYEAR=1999
DGENRE=Blues
TTITLE0=Hang Of Thru The Nite
TTITLE1=The Song
TTITLE2=All For Today
TTITLE3=Rock'n'roll's My Prayer
TTITLE4=Come Home
TTITLE5=Berlin Blues
TTITLE6=Southern Woman
TTITLE7=Pour Man's Blues
TTITLE8=Wild Wild World
TTITLE9=Blue Angel
TTITLE10=In The Morning
TTITLE11=Save Me
EXTD=
EXTT0=
EXTT1=
EXTT2=
EXTT3=
EXTT4=
EXTT5=
EXTT6=
EXTT7=
EXTT8=
EXTT9=
EXTT10=
EXTT11=
PLAYORDER=
